# xmcd
#
# Track frame offsets: 
#        150
#        611
#        10109
#        29622
#        44698
#        62823
#        79417
#        99385
#        119178
#        135506
#        155906
#        171706
#        178382
#        196565
#        218034
#
# Disc length: 3157 seconds
#
# Revision: 0
# Processed by: cddbd v1.5.2PL0 Copyright (c) Steve Scherf et al.
# Submitted via: ExactAudioCopyFreeDBPlugin 1.0
#
DISCID=dc0c530f
DTITLE=The Nashville Tribute Band - The Work
DYEAR=2011
DGENRE=Gospel
TTITLE0=Ron Saltmarsh - D&C 4:3
TTITLE1=Due West,Ron Saltmarsh& Jason Deere - Children Go Where I Send
TTITLE1=Thee
TTITLE2=Multiple Artists - I Was Born
TTITLE3=Billy Dean - Stronger
TTITLE4=Jason Deere - Just For Me
TTITLE5=David Osmond - Today Is The Day
TTITLE6=Katherine Nelson - Bless My Son
TTITLE7=Due West - Work
TTITLE8=Jason Deere - The Only Prayer That Matters
TTITLE9=Dan Truman - In A Letter Home
TTITLE10=Ryan Innes - Knock
TTITLE11=The Jets - Someone Prays
TTITLE12=Gale Mayes - Twilight Of My Years
TTITLE13=Jason Deere - Hardest Thing I Ever Loved To Do
TTITLE14=Dan Truman - Angels In The Streets
EXTD=
EXTT0=
EXTT1=
EXTT2=
EXTT3=
EXTT4=
EXTT5=
EXTT6=
EXTT7=
EXTT8=
EXTT9=
EXTT10=
EXTT11=
EXTT12=
EXTT13=
EXTT14=
PLAYORDER=
